<?xml version="1.0" encoding="UTF-8" standalone="no"?>
<!-- Created with Inkscape (http://www.inkscape.org/) -->

<svg
   version="1.1"
   id="svg2"
   xml:space="preserve"
   width="53.87"
   height="43.61"
   viewBox="0 0 1496 1496"
   sodipodi:docname="92e57e2be1b37ac5341e41d3686726f7.eps"
   xmlns:inkscape="http://www.inkscape.org/namespaces/inkscape"
   xmlns:sodipodi="http://sodipodi.sourceforge.net/DTD/sodipodi-0.dtd"
   xmlns="http://www.w3.org/2000/svg"
   xmlns:svg="http://www.w3.org/2000/svg"><defs
     id="defs6" /><sodipodi:namedview
     id="namedview4"
     pagecolor="#ffffff"
     bordercolor="#666666"
     borderopacity="1.0"
     inkscape:pageshadow="2"
     inkscape:pageopacity="0.0"
     inkscape:pagecheckerboard="0" /><g
     id="g8"
     inkscape:groupmode="layer"
     inkscape:label="ink_ext_XXXXXX"
     transform="matrix(1.3333333,0,0,-1.3333333,0,1496)"><g
       id="g10"
       transform="scale(0.1)"><path
         d="M 11220,0 H 0 V 11220 H 11220 V 0"
         style="fill:#ffffff;fill-opacity:1;fill-rule:nonzero;stroke:none"
         id="path12" /><path
         d="m 8580.05,6613.76 c 0,857.09 -697.33,1554.5 -1554.23,1554.5 -628.93,0 -1171.38,-375.47 -1415.94,-913.76 -244.32,538.29 -786.89,913.76 -1415.52,913.76 -857.27,0 -1554.41,-697.41 -1554.41,-1554.5 0,-180.8 31.05,-354.19 88.18,-515.81 65,-183.96 163.53,-351.99 288.44,-496.91 53.26,-62.01 111.12,-119.58 173.57,-172.49 L 5560.92,3073.61 c 14.59,-14.62 33.59,-21.87 52.78,-21.87 19.36,0 38.49,7.25 53.19,21.87 l 2458.82,2442.92 -0.17,0.33 c 159.35,159.72 284.32,353.56 362.58,569.92 59.43,164.59 91.93,342.09 91.93,526.98"
         style="fill:#aad4c8;fill-opacity:1;fill-rule:nonzero;stroke:none"
         id="path14" /></g></g></svg>
